<svg xmlns="http://www.w3.org/2000/svg" width="1em" height="1em" viewBox="0 0 512 512">
    <path fill="#ffc9ab" d="m366.462 320.88l-.367 6.718c0 79.189-64.221 143.389-143.395 143.389c-79.205 0-143.395-64.2-143.395-143.389l-.393-6.718c-16.595-1.017-29.753-14.807-29.753-31.664c0-15.59 11.255-28.552 26.073-31.219l-3.342-57.114c0-84.396 61.902-136.479 146.314-136.479c84.391 0 154.81 52.083 154.81 136.479l-3.116 57.07c14.941 2.565 26.324 15.586 26.324 31.264c-.001 16.858-13.162 30.649-29.76 31.663"/>
    <path fill="#2b3b47" d="M150.723 286.966h-.03c0 .03.03.041.03.056c0 7.946-6.447 14.394-14.394 14.394s-14.394-6.447-14.394-14.394v-.056h-.062l.173-20.234c.642-7.371 6.743-13.171 14.282-13.171c7.518 0 13.619 5.8 14.252 13.171zm172.196-20.235c-.633-7.371-6.743-13.171-14.282-13.171c-7.509 0-13.619 5.8-14.252 13.171l-.174 20.234h.062v.056c0 7.946 6.447 14.394 14.364 14.394c7.947 0 14.394-6.447 14.394-14.394v-.056z"/>
    <path fill="#fff" d="M133.245 267.519v5.057a3.584 3.584 3.584 0 0 1-7.168 0v-.014h-.008v-5.043h.036c.165-1.831 1.684-3.279 3.556-3.279a3.567 3.567 0 0 1 3.546 3.279zm173.359 0a3.567 3.567 0 0 0-3.546-3.279c-1.872 0-3.391 1.448-3.556 3.279h-.036v5.043h.008v.014a3.584 3.584 0 0 0 7.168 0v-5.057z"/>
    <path fill="#a9b5b4" d="m152.166 242.078l-.333-.083l-1.093-.242a86 86 0 0 0-4.113-.757c-3.44-.561-8.094-1.094-12.579-1.11a54 54 0 0 0-3.296.085a41 41 0 0 0-3.067.292a22 22 0 0 0-1.402.219q-.685.112-1.291.262c-.421.085-.801.192-1.165.298c-.379.095-.71.211-1.027.322a8 8 0 0 0-.882.333c-.272.11-.535.211-.739.327c-.212.112-.435.204-.607.304l-.462.278c-.301.157-.444.318-.593.405l-.209.142l-.972.66a6.313 6.313 0 0 1-8.018-9.679l.464-.466c.308-.287.748-.781 1.351-1.26l1.003-.816c.369-.285.774-.549 1.209-.852c.436-.311.901-.583 1.396-.869a19 19 0 0 1 1.562-.846a23 23 0 0 1 1.704-.796c.59-.258 1.2-.512 1.821-.729a28 28 0 0 1 1.916-.654a35 35 0 0 1 1.989-.577a55 55 0 0 1 4.123-.925a69 69 0 0 1 4.199-.636c5.594-.673 11.052-.703 15.144-.552c2.047.074 3.754.189 4.972.293l1.442.135l.562.064l.14.016a8.866 8.866 0 0 1 7.8 9.817a8.866 8.866 0 0 1-10.949 7.597m137.852-17.408a8.867 8.867 0 1 0 3.196 17.408l.333-.083l1.093-.242a86 86 0 0 1 4.113-.757c3.44-.561 8.094-1.094 12.579-1.11c1.12-.005 2.225.024 3.296.085c1.064.069 2.104.155 3.067.292a22 22 0 0 1 1.402.219q.685.112 1.291.262c.421.085.801.192 1.165.298c.379.095.71.211 1.027.322c.331.102.621.217.882.333c.272.11.535.211.739.327c.212.112.435.204.607.304l.462.278c.301.157.444.318.593.405l.209.142l.974.663a6.314 6.314 0 0 0 8.016-9.682l-.464-.466c-.308-.287-.748-.781-1.351-1.26l-1.003-.816c-.369-.285-.774-.549-1.209-.852a17 17 0 0 0-1.396-.869a19 19 0 0 0-1.562-.846a23 23 0 0 0-1.704-.796c-.59-.258-1.2-.512-1.821-.729a28 28 0 0 0-1.916-.654a35 35 0 0 0-1.989-.577a55 55 0 0 0-4.123-.925a69 69 0 0 0-4.199-.636c-5.594-.673-11.052-.703-15.144-.552c-2.047.074-3.754.189-4.972.293l-1.442.135l-.562.064z"/>
    <path fill="#e0a882" d="M222.445 340.36h-.015c-9.736-.005-18.594-4.84-23.694-12.933a5.886 5.886 0 0 1 9.957-6.275c2.934 4.656 8.072 7.437 13.743 7.44h.009c5.679 0 10.826-2.783 13.771-7.445a5.884 5.884 0 0 1 8.117-1.833a5.883 5.883 0 0 1 1.833 8.117c-5.114 8.096-13.982 12.929-23.721 12.929m80.977 43.034c7.923-6.019 9.463-17.321 3.444-25.241c-6.015-7.92-17.321-9.47-25.241-3.444c-35.983 27.336-82.477 27.339-118.45 0c-7.917-6.019-19.219-4.476-25.242 3.442c-6.019 7.923-4.479 19.224 3.443 25.243c10.922 8.372 23.073 14.557 36.4 16.964c4.019 1.88 8.524 2.917 13.215 2.917c7.181 0 13.914-2.188 19.865-6.257a40.906 40.906 0 0 0 10.91-13.689z"/>
    <style>
    path { fill: #000; }
    @media (prefers-color-scheme: dark) {
    path { fill: #FFF; }
    }
    </style>
</svg>
